<svg width="72" height="72" viewBox="0 0 72 72" fill="none" xmlns="http://www.w3.org/2000/svg">
<g clip-path="url(#clip0_1752_7279)">
<circle opacity="0.2" cx="35.9999" cy="36" r="25" transform="rotate(-45 35.9999 36)" fill="white"/>
<path d="M0.644456 69.9413C0.253931 70.3319 0.253931 70.965 0.644456 71.3555C1.03498 71.7461 1.66814 71.7461 2.05867 71.3555L0.644456 69.9413ZM34.8785 38.1215C34.8785 37.5692 34.4308 37.1215 33.8785 37.1215L24.8785 37.1215C24.3262 37.1215 23.8785 37.5692 23.8785 38.1215C23.8785 38.6738 24.3262 39.1215 24.8785 39.1215L32.8785 39.1215L32.8785 47.1215C32.8785 47.6738 33.3262 48.1215 33.8785 48.1215C34.4308 48.1215 34.8785 47.6738 34.8785 47.1215L34.8785 38.1215ZM2.05867 71.3555L34.5856 38.8286L33.1714 37.4144L0.644456 69.9413L2.05867 71.3555Z" fill="white"/>
<mask id="mask0_1752_7279" style="mask-type:alpha" maskUnits="userSpaceOnUse" x="35" y="35" width="2" height="2">
<circle cx="36.0002" cy="36" r="1" transform="rotate(-45 36.0002 36)" fill="#22DB54"/>
</mask>
<g mask="url(#mask0_1752_7279)">
<circle cx="34.5861" cy="37.4141" r="1" transform="rotate(-45 34.5861 37.4141)" fill="white"/>
<path d="M0.644456 69.9413C0.253931 70.3319 0.253931 70.965 0.644456 71.3555C1.03498 71.7461 1.66814 71.7461 2.05867 71.3555L0.644456 69.9413ZM34.8785 38.1215C34.8785 37.5692 34.4308 37.1215 33.8785 37.1215L24.8785 37.1215C24.3262 37.1215 23.8785 37.5692 23.8785 38.1215C23.8785 38.6738 24.3262 39.1215 24.8785 39.1215L32.8785 39.1215L32.8785 47.1215C32.8785 47.6738 33.3262 48.1215 33.8785 48.1215C34.4308 48.1215 34.8785 47.6738 34.8785 47.1215L34.8785 38.1215ZM2.05867 71.3555L34.5856 38.8286L33.1714 37.4144L0.644456 69.9413L2.05867 71.3555Z" fill="#22DB54"/>
</g>
</g>
<defs>
<clipPath id="clip0_1752_7279">
<rect width="50" height="50" fill="white" transform="translate(0.644531 36) rotate(-45)"/>
</clipPath>
</defs>
</svg>
