<svg width="28" height="28" viewBox="0 0 28 28" fill="none" xmlns="http://www.w3.org/2000/svg">
<g id="icons8-facebook">
<path id="Vector" d="M22.1667 3.5H5.83333C4.54417 3.5 3.5 4.54417 3.5 5.83333V22.1667C3.5 23.4558 4.54417 24.5 5.83333 24.5H14.7245V16.3788H11.991V13.1997H14.7245V10.8605C14.7245 8.14917 16.3823 6.671 18.802 6.671C19.6175 6.66867 20.4318 6.71067 21.2427 6.7935V9.6285H19.5767C18.2583 9.6285 18.0017 10.2515 18.0017 11.1708V13.195H21.1517L20.7422 16.3742H17.983V24.5H22.1667C23.4558 24.5 24.5 23.4558 24.5 22.1667V5.83333C24.5 4.54417 23.4558 3.5 22.1667 3.5Z" fill="#310D7D"/>
</g>
</svg>
