<svg width="28" height="28" viewBox="0 0 28 28" fill="none" xmlns="http://www.w3.org/2000/svg">
<g id="icons8-linkedin">
<path id="Vector" d="M22.1667 3.5H5.83333C4.54417 3.5 3.5 4.54417 3.5 5.83333V22.1667C3.5 23.4558 4.54417 24.5 5.83333 24.5H22.1667C23.4558 24.5 24.5 23.4558 24.5 22.1667V5.83333C24.5 4.54417 23.4558 3.5 22.1667 3.5ZM10.5 19.8333H7.5565V11.6667H10.5V19.8333ZM8.97633 10.1698C8.07683 10.1698 7.476 9.57017 7.476 8.76983C7.476 7.9695 8.07567 7.36983 9.0755 7.36983C9.975 7.36983 10.5758 7.9695 10.5758 8.76983C10.5758 9.57017 9.97617 10.1698 8.97633 10.1698ZM21 19.8333H18.151V15.3697C18.151 14.1353 17.3915 13.8507 17.1068 13.8507C16.8222 13.8507 15.8725 14.0408 15.8725 15.3697C15.8725 15.5598 15.8725 19.8333 15.8725 19.8333H12.929V11.6667H15.8725V12.8065C16.2517 12.1415 17.0112 11.6667 18.4357 11.6667C19.8602 11.6667 21 12.8065 21 15.3697V19.8333Z" fill="#310D7D"/>
</g>
</svg>
