<svg width="28" height="28" viewBox="0 0 28 28" fill="none" xmlns="http://www.w3.org/2000/svg">
<g id="icons8-twitter">
<path id="Vector" d="M25.6693 4.66406C24.7593 5.20423 22.9334 5.9404 21.8601 6.15273C21.8286 6.1609 21.8029 6.1714 21.7726 6.17956C20.8241 5.2439 19.5244 4.66406 18.0859 4.66406C15.1868 4.66406 12.8359 7.0149 12.8359 9.91406C12.8359 10.0669 12.8231 10.3481 12.8359 10.4974C8.9241 10.4974 5.94677 8.44873 3.81177 5.83073C3.5796 6.41406 3.4781 7.33573 3.4781 8.2014C3.4781 9.8359 4.7556 11.4412 6.74477 12.4364C6.37844 12.5309 5.97477 12.5986 5.55477 12.5986C4.87694 12.5986 4.15944 12.4201 3.5026 11.8787C3.5026 11.8986 3.5026 11.9172 3.5026 11.9382C3.5026 14.2226 5.92694 15.7777 8.08294 16.2106C7.64544 16.4684 6.76344 16.4941 6.33294 16.4941C6.0296 16.4941 4.95627 16.3552 4.66927 16.3016C5.26894 18.1741 7.43194 19.2264 9.49344 19.2637C7.8811 20.5284 6.76227 20.9974 3.4606 20.9974H2.33594C4.42194 22.3344 7.07844 23.3319 9.74077 23.3319C18.4091 23.3319 23.3359 16.7251 23.3359 10.4974C23.3359 10.3971 23.3336 10.1871 23.3301 9.9759C23.3301 9.9549 23.3359 9.93506 23.3359 9.91406C23.3359 9.88256 23.3266 9.85223 23.3266 9.82073C23.3231 9.66206 23.3196 9.5139 23.3161 9.4369C24.2378 8.7719 25.0369 7.9424 25.6693 6.9974C24.8234 7.37306 23.9158 7.62506 22.9626 7.7394C23.9356 7.15606 25.3181 5.7654 25.6693 4.66406Z" fill="#310D7D"/>
</g>
</svg>
