<svg width="28" height="28" viewBox="0 0 28 28" fill="none" xmlns="http://www.w3.org/2000/svg">
<g id="icons8-youtube">
<path id="Vector" d="M25.1816 7.2183C24.9133 6.21497 24.1223 5.42397 23.1189 5.15564C21.2989 4.66797 14.0026 4.66797 14.0026 4.66797C14.0026 4.66797 6.70627 4.66797 4.88627 5.15564C3.88294 5.42397 3.09194 6.21497 2.8236 7.2183C2.33594 9.0383 2.33594 14.0013 2.33594 14.0013C2.33594 14.0013 2.33594 18.9643 2.8236 20.7843C3.09194 21.7876 3.88294 22.5786 4.88627 22.847C6.70627 23.3346 14.0026 23.3346 14.0026 23.3346C14.0026 23.3346 21.2989 23.3346 23.1189 22.847C24.1234 22.5786 24.9133 21.7876 25.1816 20.7843C25.6693 18.9643 25.6693 14.0013 25.6693 14.0013C25.6693 14.0013 25.6693 9.0383 25.1816 7.2183ZM11.6693 18.0426V9.95997L18.6693 14.0013L11.6693 18.0426Z" fill="#310D7D"/>
</g>
</svg>
