<svg width="124" height="111" viewBox="0 0 124 111" fill="none" xmlns="http://www.w3.org/2000/svg">
<path d="M52.4859 83.2629C49.5058 81.2648 46.5483 78.9959 43.6697 76.4673C37.9692 71.4327 33.2507 65.9466 29.6836 60.4492" stroke="#22DB54" stroke-width="2" stroke-linecap="round" stroke-linejoin="round"/>
<path d="M84.1953 93.217C84.2856 93.2057 84.3759 93.1945 84.4662 93.1719" stroke="#22DB54" stroke-width="2" stroke-linecap="round" stroke-linejoin="round"/>
<path d="M60.3867 87.8945C69.0787 92.2631 77.5224 94.1595 84.1938 93.2339" stroke="#22DB54" stroke-width="2" stroke-linecap="round" stroke-linejoin="round"/>
<path d="M21.9262 37.6641C21.7569 42.0891 22.9309 47.1349 25.2676 52.3953" stroke="#22DB54" stroke-width="2" stroke-linecap="round" stroke-linejoin="round"/>
<path d="M52.4829 83.2617C52.0088 83.9842 51.7266 84.8534 51.7266 85.779C51.7266 87.19 52.37 88.4318 53.3634 89.2784" stroke="#22DB54" stroke-width="2" stroke-linecap="round" stroke-linejoin="round"/>
<path d="M60.3846 87.8945C59.617 89.3733 58.0931 90.4005 56.3208 90.4005C55.192 90.4005 54.1648 89.9716 53.3633 89.2943" stroke="#22DB54" stroke-width="2" stroke-linecap="round" stroke-linejoin="round"/>
<path d="M60.3852 87.8919C60.7126 87.2597 60.9158 86.5486 60.9158 85.781C60.9158 84.5392 60.4191 83.4217 59.6289 82.5977" stroke="#22DB54" stroke-width="2" stroke-linecap="round" stroke-linejoin="round"/>
<path d="M52.4844 83.2641C53.3084 82.0111 54.7195 81.1758 56.3337 81.1758C57.6432 81.1758 58.8059 81.7289 59.6525 82.6094" stroke="#22DB54" stroke-width="2" stroke-linecap="round" stroke-linejoin="round"/>
<path d="M31.6602 57.6719C36.9318 59.1281 43.3209 60.4375 50.3874 61.4647" stroke="#22DB54" stroke-width="2" stroke-linecap="round" stroke-linejoin="round"/>
<path d="M59.3732 62.5625C59.3732 62.5625 59.3845 62.6641 59.3845 62.7205C59.3845 65.2717 57.33 67.3375 54.7901 67.3375C54.1467 67.3375 53.5258 67.202 52.9727 66.9537" stroke="#22DB54" stroke-width="2" stroke-linecap="round" stroke-linejoin="round"/>
<path d="M59.3714 62.5609C59.2811 60.0887 57.2718 58.1133 54.7883 58.1133C54.6755 58.1133 54.5738 58.1359 54.4609 58.1471" stroke="#22DB54" stroke-width="2" stroke-linecap="round" stroke-linejoin="round"/>
<path d="M52.9722 66.9505C51.3354 66.2394 50.1953 64.6139 50.1953 62.7174C50.1953 62.2772 50.2743 61.8595 50.3985 61.4531" stroke="#22DB54" stroke-width="2" stroke-linecap="round" stroke-linejoin="round"/>
<path d="M54.4735 58.1445C52.5206 58.28 50.9177 59.6346 50.3984 61.4633" stroke="#22DB54" stroke-width="2" stroke-linecap="round" stroke-linejoin="round"/>
<path d="M86.5547 74.8633C86.5547 74.8633 86.5768 74.8633 86.5878 74.8633" stroke="#22DB54" stroke-width="2" stroke-linecap="round" stroke-linejoin="round"/>
<path d="M89.0958 67.6172C89.6828 68.3961 90.0554 69.3556 90.0554 70.4054C90.0554 72.5502 88.5766 74.345 86.5898 74.853" stroke="#22DB54" stroke-width="2" stroke-linecap="round" stroke-linejoin="round"/>
<path d="M89.0586 67.582C89.0586 67.582 89.0806 67.6041 89.0917 67.6152" stroke="#22DB54" stroke-width="2" stroke-linecap="round" stroke-linejoin="round"/>
<path d="M84.8164 65.8568C85.0196 65.8229 85.2341 65.7891 85.4485 65.7891C86.916 65.7891 88.2142 66.5002 89.0608 67.5726" stroke="#22DB54" stroke-width="2" stroke-linecap="round" stroke-linejoin="round"/>
<path d="M84.8138 65.8594C82.5787 66.1754 80.8516 68.0719 80.8516 70.4086C80.8516 72.9597 82.906 75.0255 85.4459 75.0255C85.8297 75.0255 86.1909 74.969 86.5521 74.8787" stroke="#22DB54" stroke-width="2" stroke-linecap="round" stroke-linejoin="round"/>
<path d="M78.6086 49.7552C79.9519 48.9537 80.8549 47.4975 80.8549 45.8155C80.8549 43.9981 79.7939 42.4403 78.2812 41.6953" stroke="#22DB54" stroke-width="2" stroke-linecap="round" stroke-linejoin="round"/>
<path d="M74.0586 41.7905C74.7133 41.4293 75.4471 41.2148 76.2485 41.2148C76.9823 41.2148 77.6595 41.3955 78.2691 41.7002" stroke="#22DB54" stroke-width="2" stroke-linecap="round" stroke-linejoin="round"/>
<path d="M74.0607 41.793C72.6383 42.5719 71.6562 44.0732 71.6562 45.8229C71.6562 48.3063 73.6091 50.3043 76.0586 50.4172" stroke="#22DB54" stroke-width="2" stroke-linecap="round" stroke-linejoin="round"/>
<path d="M76.2031 50.4238C76.2031 50.4238 76.237 50.4238 76.2596 50.4238C77.1175 50.4238 77.919 50.1755 78.6075 49.7578" stroke="#22DB54" stroke-width="2" stroke-linecap="round" stroke-linejoin="round"/>
<path d="M76.0547 50.4023C76.0547 50.4023 76.145 50.4023 76.2014 50.4136" stroke="#22DB54" stroke-width="2" stroke-linecap="round" stroke-linejoin="round"/>
<path d="M62.8008 33.361C61.5591 33.0223 60.5206 32.1757 59.9336 31.0469" stroke="#22DB54" stroke-width="2" stroke-linecap="round" stroke-linejoin="round"/>
<path d="M67.1172 32.2734C66.2932 33.041 65.2095 33.5152 64.0017 33.5152C63.5953 33.5152 63.1889 33.4587 62.8164 33.3571" stroke="#22DB54" stroke-width="2" stroke-linecap="round" stroke-linejoin="round"/>
<path d="M67.1172 32.2782C68.0203 31.4316 68.596 30.2463 68.596 28.9143C68.596 28.6772 68.5621 28.4402 68.5282 28.2031" stroke="#22DB54" stroke-width="2" stroke-linecap="round" stroke-linejoin="round"/>
<path d="M67.1602 25.6016C67.86 26.2901 68.3567 27.1819 68.5148 28.1979" stroke="#22DB54" stroke-width="2" stroke-linecap="round" stroke-linejoin="round"/>
<path d="M60.7695 25.6289C61.6049 24.8048 62.7337 24.2969 63.998 24.2969C65.2623 24.2969 66.3459 24.8048 67.17 25.595" stroke="#22DB54" stroke-width="2" stroke-linecap="round" stroke-linejoin="round"/>
<path d="M59.9403 31.0434C59.6017 30.4 59.3984 29.6775 59.3984 28.9099C59.3984 27.623 59.929 26.4603 60.7756 25.625" stroke="#22DB54" stroke-width="2" stroke-linecap="round" stroke-linejoin="round"/>
<path d="M27.3945 61.16C28.2412 61.1261 29.0088 60.8665 29.6861 60.4375" stroke="#22DB54" stroke-width="2" stroke-linecap="round" stroke-linejoin="round"/>
<path d="M29.8299 60.3477C29.8299 60.3477 29.7283 60.4041 29.6719 60.438" stroke="#22DB54" stroke-width="2" stroke-linecap="round" stroke-linejoin="round"/>
<path d="M25.4258 52.3222C25.9676 52.0964 26.5772 51.9609 27.2094 51.9609C28.2479 51.9609 29.196 52.3222 29.9749 52.9092" stroke="#22DB54" stroke-width="2" stroke-linecap="round" stroke-linejoin="round"/>
<path d="M31.6569 57.6719C31.386 58.7668 30.7312 59.7151 29.8281 60.3472" stroke="#22DB54" stroke-width="2" stroke-linecap="round" stroke-linejoin="round"/>
<path d="M29.9648 52.9062C31.0711 53.7529 31.8048 55.0736 31.8048 56.5749C31.8048 56.9587 31.7596 57.32 31.6693 57.6699" stroke="#22DB54" stroke-width="2" stroke-linecap="round" stroke-linejoin="round"/>
<path d="M23.0001 54.6992C22.7518 55.2749 22.5938 55.8958 22.5938 56.5618C22.5938 59.1129 24.6482 61.1674 27.1881 61.1674C27.2558 61.1674 27.3122 61.1561 27.38 61.1448" stroke="#22DB54" stroke-width="2" stroke-linecap="round" stroke-linejoin="round"/>
<path d="M25.2695 52.4032C25.2695 52.4032 25.3598 52.3468 25.4163 52.3242" stroke="#22DB54" stroke-width="2" stroke-linecap="round" stroke-linejoin="round"/>
<path d="M23 54.7052C23.4515 53.6892 24.2643 52.8652 25.269 52.4023" stroke="#22DB54" stroke-width="2" stroke-linecap="round" stroke-linejoin="round"/>
<path d="M84.2852 93.0517C84.4658 93.0291 84.635 93.0065 84.8044 92.9727" stroke="#22DB54" stroke-width="2" stroke-linecap="round" stroke-linejoin="round"/>
<path d="M93.9365 62.4492C92.4916 64.2102 90.8547 65.9373 89.0938 67.6305" stroke="#22DB54" stroke-width="2" stroke-linecap="round" stroke-linejoin="round"/>
<path d="M93.9336 62.4472C100.244 54.7824 103.438 46.7339 102.456 40.0625" stroke="#22DB54" stroke-width="2" stroke-linecap="round" stroke-linejoin="round"/>
<path d="M79.1055 26.4826C84.4448 26.1778 89.2649 26.8325 93.1142 28.4919" stroke="#22DB54" stroke-width="2" stroke-linecap="round" stroke-linejoin="round"/>
<path d="M79.1064 26.4805C76.3634 26.6385 73.4962 27.0223 70.5273 27.6883" stroke="#22DB54" stroke-width="2" stroke-linecap="round" stroke-linejoin="round"/>
<path d="M93.125 28.4922C95.0892 29.3388 96.805 30.4338 98.2273 31.7884" stroke="#22DB54" stroke-width="2" stroke-linecap="round" stroke-linejoin="round"/>
<path d="M70.5362 27.6875C69.8702 27.8342 69.1929 28.0149 68.5156 28.1955" stroke="#22DB54" stroke-width="2" stroke-linecap="round" stroke-linejoin="round"/>
<path d="M29.9648 52.9123C34.8188 46.715 41.6933 40.7209 50.0918 35.867C53.3654 33.9705 56.6617 32.3789 59.9466 31.0469" stroke="#22DB54" stroke-width="2" stroke-linecap="round" stroke-linejoin="round"/>
<path d="M86.5547 74.8633C86.5547 74.8633 86.5547 74.9079 86.5547 74.9303" stroke="#22DB54" stroke-width="2" stroke-linecap="round" stroke-linejoin="round"/>
<path d="M84.2852 93.0513C86.6444 88.457 87.3781 82.1355 86.5653 74.9336" stroke="#22DB54" stroke-width="2" stroke-linecap="round" stroke-linejoin="round"/>
<path d="M74.0567 41.7879C72.07 38.6611 69.959 35.7261 67.7578 33.0508" stroke="#22DB54" stroke-width="2" stroke-linecap="round" stroke-linejoin="round"/>
<path d="M67.7719 33.0489C67.5575 32.7892 67.3317 32.5296 67.1172 32.2812" stroke="#22DB54" stroke-width="2" stroke-linecap="round" stroke-linejoin="round"/>
<path d="M84.1958 93.2188C84.1619 93.2865 84.1393 93.3429 84.1055 93.3994" stroke="#22DB54" stroke-width="2" stroke-linecap="round" stroke-linejoin="round"/>
<path d="M84.1953 93.2201C84.2179 93.1637 84.2518 93.1072 84.2856 93.0508" stroke="#22DB54" stroke-width="2" stroke-linecap="round" stroke-linejoin="round"/>
<path d="M84.8175 65.8549C83.4291 60.651 81.352 55.2101 78.5977 49.7578" stroke="#22DB54" stroke-width="2" stroke-linecap="round" stroke-linejoin="round"/>
<path d="M44.6641 15.4531C49.8454 17.1238 55.3993 20.6457 60.7725 25.6239" stroke="#22DB54" stroke-width="2" stroke-linecap="round" stroke-linejoin="round"/>
<path d="M38.9746 93.2321C37.3152 91.4259 35.7799 89.2699 34.4141 86.8203" stroke="#22DB54" stroke-width="2" stroke-linecap="round" stroke-linejoin="round"/>
<path d="M27.3945 61.1602C28.0718 71.139 30.623 80.0793 34.4158 86.8185" stroke="#22DB54" stroke-width="2" stroke-linecap="round" stroke-linejoin="round"/>
<path d="M21.9297 37.668C21.9636 37.6003 21.9861 37.5326 22.02 37.4648" stroke="#22DB54" stroke-width="2" stroke-linecap="round" stroke-linejoin="round"/>
<path d="M21.9283 37.6641C19.411 43.1953 18 49.3249 18 55.8044C18 62.6338 19.5578 69.0907 22.3347 74.859" stroke="#22DB54" stroke-width="2" stroke-linecap="round" stroke-linejoin="round"/>
<path d="M23.0234 35.4218C25.394 30.9064 28.5321 26.8427 32.2573 23.4336" stroke="#22DB54" stroke-width="2" stroke-linecap="round" stroke-linejoin="round"/>
<path d="M22.0195 37.4538C22.3356 36.7652 22.663 36.0879 23.0242 35.4219" stroke="#22DB54" stroke-width="2" stroke-linecap="round" stroke-linejoin="round"/>
<path d="M43.646 95.6913C42.0318 94.9576 40.474 94.1448 38.9727 93.2305" stroke="#22DB54" stroke-width="2" stroke-linecap="round" stroke-linejoin="round"/>
<path d="M43.6445 95.6914C47.2907 97.3508 51.2076 98.5361 55.3053 99.1456" stroke="#22DB54" stroke-width="2" stroke-linecap="round" stroke-linejoin="round"/>
<path d="M22.3477 74.8516C23.9393 78.1477 25.9373 81.2069 28.2627 83.9838" stroke="#22DB54" stroke-width="2" stroke-linecap="round" stroke-linejoin="round"/>
<path d="M28.2578 83.9844C31.3057 87.6079 34.9179 90.7461 38.9704 93.2182" stroke="#22DB54" stroke-width="2" stroke-linecap="round" stroke-linejoin="round"/>
<path d="M32.2578 23.4439C34.3236 21.5474 36.5812 19.8542 38.9744 18.3867" stroke="#22DB54" stroke-width="2" stroke-linecap="round" stroke-linejoin="round"/>
<path d="M84.4609 93.1871C84.5738 93.1194 84.6867 93.0517 84.7996 92.9727" stroke="#22DB54" stroke-width="2" stroke-linecap="round" stroke-linejoin="round"/>
<path d="M84.4667 93.1875C84.3425 93.2665 84.2296 93.3342 84.1055 93.4133" stroke="#22DB54" stroke-width="2" stroke-linecap="round" stroke-linejoin="round"/>
<path d="M97.5157 80.875C94.1405 85.7177 89.8171 89.8379 84.8164 92.9761" stroke="#22DB54" stroke-width="2" stroke-linecap="round" stroke-linejoin="round"/>
<path d="M84.1 93.4102C80.5555 95.5324 76.6836 97.1692 72.5859 98.219" stroke="#22DB54" stroke-width="2" stroke-linecap="round" stroke-linejoin="round"/>
<path d="M64.6797 99.4943C67.4002 99.3137 70.0416 98.8735 72.5927 98.2188" stroke="#22DB54" stroke-width="2" stroke-linecap="round" stroke-linejoin="round"/>
<path d="M64.6756 99.4944C63.6822 99.5621 62.6888 99.6073 61.6954 99.6073C60.1715 99.6073 58.6815 99.4944 57.1914 99.3477" stroke="#22DB54" stroke-width="2" stroke-linecap="round" stroke-linejoin="round"/>
<path d="M57.1938 99.3477C56.5616 99.28 55.9295 99.2348 55.3086 99.1445" stroke="#22DB54" stroke-width="2" stroke-linecap="round" stroke-linejoin="round"/>
<path d="M98.2266 31.7891C99.9085 34.3628 101.342 37.1284 102.46 40.0521" stroke="#22DB54" stroke-width="2" stroke-linecap="round" stroke-linejoin="round"/>
<path d="M77.3438 14.9102C83.0105 17.0888 88.0902 20.4301 92.3346 24.6181" stroke="#22DB54" stroke-width="2" stroke-linecap="round" stroke-linejoin="round"/>
<path d="M98.225 31.7892C96.5204 29.1929 94.5337 26.7997 92.3438 24.6211" stroke="#22DB54" stroke-width="2" stroke-linecap="round" stroke-linejoin="round"/>
<path d="M97.5156 80.8688C102.471 73.7685 105.384 65.133 105.384 55.7975C105.384 50.2437 104.345 44.9382 102.46 40.0391" stroke="#22DB54" stroke-width="2" stroke-linecap="round" stroke-linejoin="round"/>
<path d="M62.8034 33.3594C59.9362 39.2293 57.4189 46.1152 55.5225 53.6106C55.1387 55.1345 54.7887 56.6471 54.4727 58.1372" stroke="#22DB54" stroke-width="2" stroke-linecap="round" stroke-linejoin="round"/>
<path d="M86.5882 74.8516C86.5882 74.8516 86.5659 74.8962 86.5547 74.9297" stroke="#22DB54" stroke-width="2" stroke-linecap="round" stroke-linejoin="round"/>
<path d="M93.1226 28.493C92.9082 27.1271 92.6485 25.8402 92.3438 24.6211" stroke="#22DB54" stroke-width="2" stroke-linecap="round" stroke-linejoin="round"/>
<path d="M53.3637 89.2812C50.0788 92.2501 46.7827 94.44 43.6445 95.693" stroke="#22DB54" stroke-width="2" stroke-linecap="round" stroke-linejoin="round"/>
<path d="M76.2005 50.4219C75.0378 54.3728 73.5591 58.4366 71.7416 62.5229C68.2874 70.278 64.0995 77.1074 59.6406 82.5935" stroke="#22DB54" stroke-width="2" stroke-linecap="round" stroke-linejoin="round"/>
<path d="M38.9727 18.3885C40.7788 17.2823 42.6865 16.3002 44.6506 15.4648" stroke="#22DB54" stroke-width="2" stroke-linecap="round" stroke-linejoin="round"/>
<path d="M44.6641 15.4523C48.0167 14.03 51.5951 13.0141 55.3202 12.4609" stroke="#22DB54" stroke-width="2" stroke-linecap="round" stroke-linejoin="round"/>
<path d="M77.3399 14.9124C72.4746 13.0385 67.203 12 61.6943 12C59.527 12 57.3935 12.1693 55.3164 12.4741" stroke="#22DB54" stroke-width="2" stroke-linecap="round" stroke-linejoin="round"/>
</svg>
