<svg width="124" height="111" viewBox="0 0 124 111" fill="none" xmlns="http://www.w3.org/2000/svg">
<path d="M56.3164 103.157L62.9765 94.815L71.3073 96.4857L77.9786 81.4609" stroke="#22DB54" stroke-width="2" stroke-linecap="round" stroke-linejoin="round"/>
<path d="M77.8633 16.3542C87.368 5.29163 96.8954 25.6106 106.434 14.548C106.344 20.1132 106.265 25.6783 106.174 31.2434C96.805 42.1141 87.447 22.1789 78.1116 33.0496" stroke="#22DB54" stroke-width="2" stroke-linecap="round" stroke-linejoin="round"/>
<path d="M111.289 103.159L79.6367 78.1211" stroke="#22DB54" stroke-width="2" stroke-linecap="round" stroke-linejoin="round"/>
<path d="M54.9479 86.9961L35.6562 94.4351" stroke="#22DB54" stroke-width="2" stroke-linecap="round" stroke-linejoin="round"/>
<path d="M77.9774 78.1211L63.1445 83.833" stroke="#22DB54" stroke-width="2" stroke-linecap="round" stroke-linejoin="round"/>
<path d="M25.451 98.3633L13 103.161" stroke="#22DB54" stroke-width="2" stroke-linecap="round" stroke-linejoin="round"/>
<path d="M43.6709 68.0977V76.6316C43.6709 77.6927 43.3774 78.7425 42.8356 79.6569L35.6562 94.422" stroke="#22DB54" stroke-width="2" stroke-linecap="round" stroke-linejoin="round"/>
<path d="M25.4532 98.3633L25.1484 99.1535" stroke="#22DB54" stroke-width="2" stroke-linecap="round" stroke-linejoin="round"/>
<path d="M33.084 59.5078L33.9081 76.3048L25.4531 98.3621" stroke="#22DB54" stroke-width="2" stroke-linecap="round" stroke-linejoin="round"/>
<path d="M33.9035 55.1641C31.7474 61.2146 33.8358 65.3461 38.2156 66.4636C44.65 68.1117 54.6514 69.7711 54.6514 69.7711L54.9562 86.9971" stroke="#22DB54" stroke-width="2" stroke-linecap="round" stroke-linejoin="round"/>
<path d="M53.5806 44.5195L49.8555 55.7175L61.6405 61.5987C63.4579 62.5018 64.5415 64.4208 64.3948 66.4414L63.1305 83.8367" stroke="#22DB54" stroke-width="2" stroke-linecap="round" stroke-linejoin="round"/>
<path d="M78.8108 44.9473H67.0936C67.0936 44.9473 55.3763 31.232 49.8902 29.5388C49.8564 29.5388 49.8338 29.5388 49.7999 29.5275C46.6279 28.726 43.422 29.9677 41.582 32.4399" stroke="#22DB54" stroke-width="2" stroke-linecap="round" stroke-linejoin="round"/>
<path d="M41.3572 32.7109L41.3008 32.9028" stroke="#22DB54" stroke-width="2" stroke-linecap="round" stroke-linejoin="round"/>
<path d="M41.2988 32.8984C40.8924 33.5419 40.5425 34.2305 40.328 35.0093L33.9727 54.9671" stroke="#22DB54" stroke-width="2" stroke-linecap="round" stroke-linejoin="round"/>
<path d="M41.5943 32.4375C41.4814 32.5842 41.3911 32.7536 41.3008 32.9003" stroke="#22DB54" stroke-width="2" stroke-linecap="round" stroke-linejoin="round"/>
<path d="M77.9648 53.2578L78.8002 77.3245" stroke="#22DB54" stroke-width="2" stroke-linecap="round" stroke-linejoin="round"/>
<path d="M77.8945 8V44.9466" stroke="#22DB54" stroke-width="2" stroke-linecap="round" stroke-linejoin="round"/>
<path d="M78.8125 52.7911C80.9686 52.7911 82.7183 51.0301 82.7183 48.8741C82.7183 46.718 80.9686 44.957 78.8125 44.957" stroke="#22DB54" stroke-width="2" stroke-linecap="round" stroke-linejoin="round"/>
<path d="M53.5798 44.5193L49.5273 41.0312" stroke="#22DB54" stroke-width="2" stroke-linecap="round" stroke-linejoin="round"/>
<path d="M53.582 44.5195L63.1997 52.7939H78.8114" stroke="#22DB54" stroke-width="2" stroke-linecap="round" stroke-linejoin="round"/>
<path d="M33.974 54.9727L33.9062 55.1646" stroke="#22DB54" stroke-width="2" stroke-linecap="round" stroke-linejoin="round"/>
<path d="M61.3139 20.8568C61.3139 16.2399 57.5887 12.4922 52.9831 12.4922C48.3775 12.4922 44.6523 16.2286 44.6523 20.8568C44.6523 25.485 48.3775 29.2214 52.9831 29.2214C57.5887 29.2214 61.3139 25.4737 61.3139 20.8568Z" stroke="#22DB54" stroke-width="2" stroke-linecap="round" stroke-linejoin="round"/>
</svg>
