<svg width="124" height="111" viewBox="0 0 124 111" fill="none" xmlns="http://www.w3.org/2000/svg">
<path d="M39.9805 103.16V91.2734" stroke="#22DB54" stroke-width="2" stroke-linecap="round" stroke-linejoin="round"/>
<path d="M39.9807 91.2738C39.9807 74.3978 26.1299 69.0245 24.1545 46.0754C22.45 26.2645 34.8332 8 62.1283 8C83.102 8 93.126 22.2684 93.126 37.3383V46.0641L100.17 60.1858C101.457 62.7821 100.17 65.909 97.4269 66.8233L93.126 68.2569C93.126 68.2569 92.2455 77.4908 90.1233 84.5798C89.0961 88.0115 85.6532 90.1224 82.1199 89.5241L66.6549 86.8939" stroke="#22DB54" stroke-width="2" stroke-linecap="round" stroke-linejoin="round"/>
<path d="M76.375 90.0781V103.161" stroke="#22DB54" stroke-width="2" stroke-linecap="round" stroke-linejoin="round"/>
<path d="M80.8995 47.6569V41.3129L74.0023 40.3195C73.6524 39.0101 73.1331 37.7571 72.4671 36.6057L76.6438 31.018L72.1623 26.5365L66.5859 30.7245C65.4345 30.0585 64.1928 29.5505 62.8833 29.1893L61.9013 22.2695H55.5685L54.5864 29.1893C53.277 29.5505 52.0353 30.0585 50.8839 30.7245L45.3075 26.5365L40.826 31.018L45.0027 36.6057C44.348 37.7571 43.8287 39.0101 43.4675 40.3195L36.5703 41.3129V47.6569L43.4675 48.6503C43.8174 49.9597 44.3367 51.2127 45.0027 52.3641L40.826 57.9518L45.3075 62.4333L50.8839 58.2453C52.0353 58.9114 53.277 59.4193 54.5864 59.7806L55.5685 66.7003H61.9013L62.8833 59.7806C64.1928 59.4193 65.4345 58.9114 66.5859 58.2453L72.1623 62.4333L76.6438 57.9518L72.4671 52.3641C73.1218 51.2127 73.6411 49.9597 74.0023 48.6503L80.8995 47.6569Z" stroke="#22DB54" stroke-width="2" stroke-linecap="round" stroke-linejoin="round"/>
<path d="M50.8281 44.483C50.8281 48.8628 54.3727 52.4074 58.7412 52.4074C63.1098 52.4074 66.6543 48.8515 66.6543 44.483C66.6543 40.1144 63.1098 36.5586 58.7412 36.5586C54.3727 36.5586 50.8281 40.1144 50.8281 44.483Z" stroke="#22DB54" stroke-width="2" stroke-linecap="round" stroke-linejoin="round"/>
</svg>
