<svg width="124" height="111" viewBox="0 0 124 111" fill="none" xmlns="http://www.w3.org/2000/svg">
<path d="M58.5908 16.2461C48.2846 19.1359 41.8164 24.5881 41.8164 36.5876" stroke="#22DB54" stroke-width="2" stroke-linecap="round" stroke-linejoin="round"/>
<path d="M92.652 39.8802C77.8982 21.7964 66.418 15.2266 66.418 15.2266" stroke="#22DB54" stroke-width="2" stroke-linecap="round" stroke-linejoin="round"/>
<path d="M66.418 15.2179L71.3397 7H61.5076C46.1103 7 32 15.2179 32 34.9498V59.6148" stroke="#22DB54" stroke-width="2" stroke-linecap="round" stroke-linejoin="round"/>
<path d="M92.6516 39.8828L90.6085 43.2919C88.9378 46.0801 85.5287 47.2766 82.4922 46.1252L74.613 43.1677C74.613 43.1677 64.7808 48.1007 56.5742 41.5196" stroke="#22DB54" stroke-width="2" stroke-linecap="round" stroke-linejoin="round"/>
<path d="M63.1281 95.7734H38.531C38.531 95.7734 35.2461 97.4215 35.2461 102.355V104.003H81.1556V102.355C81.1556 97.4215 77.8819 95.7734 77.8819 95.7734H72.9603" stroke="#22DB54" stroke-width="2" stroke-linecap="round" stroke-linejoin="round"/>
<path d="M41.8244 36.5898V84.2716L38.5508 92.4895V95.7744" stroke="#22DB54" stroke-width="2" stroke-linecap="round" stroke-linejoin="round"/>
<path d="M77.8981 95.7717V92.4868L74.6132 84.2689C74.6132 84.2689 82.8085 80.984 82.8085 71.1181C82.8085 59.6153 71.3283 57.9672 68.0547 46.4531" stroke="#22DB54" stroke-width="2" stroke-linecap="round" stroke-linejoin="round"/>
</svg>
