<svg width="124" height="111" viewBox="0 0 124 111" fill="none" xmlns="http://www.w3.org/2000/svg">
<path d="M74.7344 15.4548L76.2357 12.8359" stroke="#22DB54" stroke-width="2" stroke-linecap="round" stroke-linejoin="round"/>
<path d="M84.1016 24.8603L86.7204 23.3477" stroke="#22DB54" stroke-width="2" stroke-linecap="round" stroke-linejoin="round"/>
<path d="M87.5312 37.6953H90.5452" stroke="#22DB54" stroke-width="2" stroke-linecap="round" stroke-linejoin="round"/>
<path d="M84.1016 50.543L86.7204 52.0443" stroke="#22DB54" stroke-width="2" stroke-linecap="round" stroke-linejoin="round"/>
<path d="M39.7482 50.543L37.1406 52.0443" stroke="#22DB54" stroke-width="2" stroke-linecap="round" stroke-linejoin="round"/>
<path d="M36.3147 37.6953H33.3008" stroke="#22DB54" stroke-width="2" stroke-linecap="round" stroke-linejoin="round"/>
<path d="M39.7482 24.8603L37.1406 23.3477" stroke="#22DB54" stroke-width="2" stroke-linecap="round" stroke-linejoin="round"/>
<path d="M49.1185 15.4548L47.6172 12.8359" stroke="#22DB54" stroke-width="2" stroke-linecap="round" stroke-linejoin="round"/>
<path d="M61.9297 12.014V9" stroke="#22DB54" stroke-width="2" stroke-linecap="round" stroke-linejoin="round"/>
<path d="M45.6635 63.486C33.5963 57.7064 25.3672 59.9415 19.7456 54.3086C18.2443 64.8857 15.2303 101.132 54.3894 92.068" stroke="#22DB54" stroke-width="2" stroke-linecap="round" stroke-linejoin="round"/>
<path d="M34.8008 73.9531C52.8733 84.5303 61.9153 102.648 61.9153 102.648" stroke="#22DB54" stroke-width="2" stroke-linecap="round" stroke-linejoin="round"/>
<path d="M67.9505 88.9794C67.9505 88.9794 66.4379 78.4023 75.4798 72.363C88.3823 63.7388 99.5803 70.9294 105.608 64.8789C105.608 72.4308 110.124 104.151 69.4519 96.599" stroke="#22DB54" stroke-width="2" stroke-linecap="round" stroke-linejoin="round"/>
<path d="M61.9297 73.9531V102.648" stroke="#22DB54" stroke-width="2" stroke-linecap="round" stroke-linejoin="round"/>
<path d="M92.0582 76.8984C73.9743 89.0559 61.9297 102.647 61.9297 102.647" stroke="#22DB54" stroke-width="2" stroke-linecap="round" stroke-linejoin="round"/>
<path d="M69.2695 26.6562C72.4415 28.5865 74.7218 31.736 75.3878 35.4385" stroke="#22DB54" stroke-width="2" stroke-linecap="round" stroke-linejoin="round"/>
<path d="M66.5927 72.4414H57.5508" stroke="#22DB54" stroke-width="2" stroke-linecap="round" stroke-linejoin="round"/>
<path d="M53.0352 66.4023H71.119" stroke="#22DB54" stroke-width="2" stroke-linecap="round" stroke-linejoin="round"/>
<path d="M62.0742 18.0608C72.6965 17.9027 81.5691 26.3238 81.8062 36.9348C81.9304 42.4096 79.7178 46.3831 76.7377 50.4582C74.1301 54.0366 72.1773 55.0074 71.1162 60.358" stroke="#22DB54" stroke-width="2" stroke-linecap="round" stroke-linejoin="round"/>
<path d="M71.119 60.3477H53.0352" stroke="#22DB54" stroke-width="2" stroke-linecap="round" stroke-linejoin="round"/>
<path d="M62.0768 18.0608C51.4545 17.9027 42.5819 26.3238 42.3448 36.9348C42.2207 42.4096 44.4332 46.3831 47.4133 50.4582C50.0209 54.0366 51.9737 55.0074 53.0348 60.358" stroke="#22DB54" stroke-width="2" stroke-linecap="round" stroke-linejoin="round"/>
</svg>
